<?xml version="1.0" encoding="iso-8859-1"?>
<!-- Generator: Adobe Illustrator 19.0.0, SVG Export Plug-In . SVG Version: 6.00 Build 0)  -->
<svg xmlns="http://www.w3.org/2000/svg" xmlns:xlink="http://www.w3.org/1999/xlink" version="1.1" id="Layer_1" x="0px" y="0px" viewBox="0 0 512 512" style="enable-background:new 0 0 512 512;" xml:space="preserve">
<path style="fill:#FAEBC8;" d="M131.741,462.556L15.009,501.467c-2.767,0.922-5.399-1.71-4.477-4.477l38.91-116.732  c1.737-5.212,4.665-9.947,8.548-13.832l347.79-347.789c13.82-13.82,36.226-13.82,50.046,0l37.534,37.534  c13.82,13.82,13.82,36.226,0,50.046L145.573,454.007C141.688,457.892,136.953,460.82,131.741,462.556z"/>
<path style="fill:#F5DCB4;" d="M455.827,18.638c-13.82-13.82-36.226-13.82-50.046,0L57.992,366.427  c-3.885,3.885-6.811,8.62-8.548,13.832L10.532,496.991c-0.461,1.382-0.034,2.733,0.855,3.622L474.594,37.406L455.827,18.638z"/>
<rect x="344.705" y="80.037" transform="matrix(0.7071 0.7071 -0.7071 0.7071 193.6105 -256.6699)" style="fill:#AFB9D2;" width="123.857" height="50.674"/>
<polygon style="fill:#959CB5;" points="388.715,123.285 424.548,87.451 380.758,43.662 377.883,46.536 344.924,79.493 "/>
<rect x="185.765" y="58.435" transform="matrix(0.7071 0.7071 -0.7071 0.7071 259.4337 -97.7346)" style="fill:#FFDC64;" width="123.857" height="411.724"/>
<path style="fill:#5B5D6E;" d="M28.2,443.988l-17.667,53.002c-0.922,2.766,1.71,5.399,4.477,4.477L68.011,483.8L28.2,443.988z"/>
<path style="fill:#464655;" d="M28.2,443.988l-17.667,53.002c-0.461,1.382-0.034,2.733,0.855,3.622l36.718-36.718L28.2,443.988z"/>
<rect x="19.94" y="211.435" transform="matrix(0.7071 -0.7071 0.7071 0.7071 -105.2662 230.6635)" style="fill:#FFC850;" width="411.724" height="61.928"/>
<path style="fill:#FF6991;" d="M380.312,44.105l87.581,87.581l25.467-25.467c13.82-13.82,13.82-36.226,0-50.046l-37.534-37.534  c-13.82-13.82-36.226-13.82-50.046,0L380.312,44.105z"/>
<path style="fill:#D23C69;" d="M474.595,37.405l-18.768-18.767c-13.82-13.82-36.226-13.82-50.046,0l-25.468,25.467l43.79,43.792  L474.595,37.405z"/>
<path d="M499.226,50.308l-37.534-37.534c-17.032-17.032-44.745-17.03-61.775,0L52.126,360.562  c-4.77,4.77-8.418,10.674-10.552,17.074L0.426,501.082c-0.993,2.98-0.218,6.266,2.004,8.488c1.581,1.581,3.7,2.43,5.866,2.43  c0.877,0,1.763-0.139,2.622-0.426l123.445-41.148l0,0c6.4-2.134,12.303-5.783,17.074-10.552l347.789-347.789  C516.258,95.052,516.258,67.339,499.226,50.308z M437.059,150.791L361.208,74.94l19.55-19.55l75.851,75.851L437.059,150.791z   M33.814,453.374l24.811,24.811l-37.217,12.406L33.814,453.374z M76.22,472.321l-36.541-36.541l17.632-52.897  c0.49-1.469,1.11-2.895,1.845-4.26l74.221,74.221c-1.365,0.735-2.79,1.355-4.26,1.845L76.22,472.321z M145.921,441.929  l-75.852-75.852L349.478,86.669l75.851,75.851L145.921,441.929z M487.497,100.354l-19.159,19.158l-75.851-75.851l19.158-19.158  c5.282-5.282,12.22-7.922,19.158-7.922c6.938,0,13.877,2.641,19.158,7.922l37.534,37.534  C498.06,72.601,498.06,89.79,487.497,100.354z"/>
<path d="M372.463,139.536c-3.239-3.239-8.491-3.239-11.729,0l-13.271,13.271c-3.239,3.239-3.239,8.491,0,11.729  c1.619,1.619,3.742,2.43,5.864,2.43c2.122,0,4.245-0.809,5.864-2.43l13.271-13.27C375.702,148.027,375.702,142.776,372.463,139.536z  "/>
<path d="M320.921,179.348L121.864,378.405c-3.239,3.239-3.239,8.491,0,11.729c1.619,1.619,3.742,2.43,5.864,2.43  c2.122,0,4.245-0.81,5.864-2.43L332.65,191.077c3.239-3.239,3.239-8.491,0-11.729C329.412,176.11,324.161,176.11,320.921,179.348z"/>
<g>
</g>
<g>
</g>
<g>
</g>
<g>
</g>
<g>
</g>
<g>
</g>
<g>
</g>
<g>
</g>
<g>
</g>
<g>
</g>
<g>
</g>
<g>
</g>
<g>
</g>
<g>
</g>
<g>
</g>
</svg>
